<svg xmlns="http://www.w3.org/2000/svg" viewBox="0 0 1200 800" role="img">
  <title>ninth-art-original-diagram.svg</title>
  <rect width="1200" height="800" fill="#fbfaf6"/>
  <defs>
    <pattern id="grid" width="64" height="64" patternUnits="userSpaceOnUse">
      <path d="M 64 0 L 0 0 0 64" fill="none" stroke="#d8d8d2" stroke-width="1" opacity="0.55"/>
    </pattern>
  </defs>
  <rect width="1200" height="800" fill="url(#grid)"/>
  <g fill="none" stroke="#111" stroke-width="2.5">
    <circle cx="600" cy="400" r="210"/><circle cx="600" cy="400" r="120"/><circle cx="600" cy="400" r="50"/>
    <path d="M180 400h840M600 100v600M300 190l600 420M900 190L300 610"/>
  </g>
  <g fill="#fbfbf8" stroke="#111" stroke-width="2"><rect x="120" y="120" width="190" height="100"/><rect x="890" y="120" width="190" height="100"/><rect x="120" y="580" width="190" height="100"/><rect x="890" y="580" width="190" height="100"/></g>
  <g fill="#1d6fd0"><circle cx="600" cy="400" r="10"/><circle cx="390" cy="400" r="8"/><circle cx="810" cy="400" r="8"/></g>
</svg>
