<svg xmlns="http://www.w3.org/2000/svg" viewBox="0 0 1200 900" role="img">
  <title>ninth-art-hero.svg</title>
  <rect width="1200" height="900" fill="#f8f7f4"/>
  <defs>
    <pattern id="grid" width="64" height="64" patternUnits="userSpaceOnUse">
      <path d="M 64 0 L 0 0 0 64" fill="none" stroke="#d8d8d2" stroke-width="1" opacity="0.55"/>
    </pattern>
  </defs>
  <rect width="1200" height="900" fill="url(#grid)"/>
  <g fill="#fbfbf8" stroke="#151515" stroke-width="3">
    <rect x="86" y="80" width="360" height="250"/>
    <rect x="486" y="80" width="260" height="560" fill="#f1f3f2"/>
    <rect x="790" y="105" width="300" height="225"/>
    <rect x="92" y="410" width="270" height="260"/>
    <rect x="405" y="400" width="680" height="190" fill="#f7f7f3"/>
  </g>
  <g stroke="#1868c7" stroke-width="4" fill="none" opacity="0.88">
    <path d="M150 360 C330 290 475 455 690 410 S1010 320 1120 245"/>
    <path d="M210 690 C410 590 570 690 770 600 S980 495 1120 570"/>
  </g>
  <g fill="#111">
    <circle cx="598" cy="557" r="20"/>
    <path d="M584 582 h28 l18 170 h-64z"/>
  </g>
</svg>
