<svg xmlns="http://www.w3.org/2000/svg" viewBox="0 0 1200 800" role="img">
  <title>ninth-art-temporal-mechanism.svg</title>
  <rect width="1200" height="800" fill="#f8f7f4"/>
  <defs>
    <pattern id="grid" width="64" height="64" patternUnits="userSpaceOnUse">
      <path d="M 64 0 L 0 0 0 64" fill="none" stroke="#d8d8d2" stroke-width="1" opacity="0.55"/>
    </pattern>
  </defs>
  <rect width="1200" height="800" fill="url(#grid)"/>
  <g fill="none" stroke="#111" stroke-width="3">
    <circle cx="600" cy="400" r="235"/><circle cx="600" cy="400" r="150"/>
    <path d="M245 400h710M600 140v520M350 215l500 370M850 215L350 585"/>
  </g>
  <g fill="#fbfbf8" stroke="#111" stroke-width="2.5"><rect x="120" y="330" width="230" height="140"/><rect x="850" y="330" width="230" height="140"/><rect x="485" y="80" width="230" height="130"/><rect x="485" y="590" width="230" height="130"/></g>
  <g stroke="#1d6fd0" stroke-width="5" fill="none"><path d="M430 400C500 295 700 295 770 400S700 505 600 505S430 505 430 400z"/></g>
</svg>
