<svg xmlns="http://www.w3.org/2000/svg" viewBox="0 0 1200 900" role="img">
  <rect width="1200" height="900" fill="#f8f7f4"/>
  <path d="M0 725h1200v175H0z" fill="#fff"/>
  <g stroke="#dedbd3" stroke-width="1"><path d="M80 0v900M160 0v900M240 0v900M320 0v900M400 0v900M480 0v900M560 0v900M640 0v900M720 0v900M800 0v900M880 0v900M960 0v900M1040 0v900M1120 0v900"/><path d="M0 80h1200M0 160h1200M0 240h1200M0 320h1200M0 400h1200M0 480h1200M0 560h1200M0 640h1200M0 720h1200M0 800h1200"/></g>
  <g fill="#fff" stroke="#111" stroke-width="2"><rect x="85" y="90" width="405" height="250"/><rect x="530" y="90" width="270" height="520"/><rect x="845" y="115" width="255" height="330"/><rect x="130" y="405" width="310" height="300"/><rect x="480" y="650" width="555" height="145"/></g>
  <g stroke="#a9aaa5" stroke-width="2"><path d="M120 145h290M120 190h315M120 235h245M565 155h190M565 205h165M875 170h175M875 220h135M165 470h220M165 520h175M520 705h440"/></g>
  <g fill="none" stroke="#196ad2" stroke-width="4"><path d="M205 365C370 445 575 470 760 590"/><path d="M645 690C760 575 900 510 1080 485"/><circle cx="818" cy="515" r="62"/></g>
</svg>
