<svg xmlns="http://www.w3.org/2000/svg" viewBox="0 0 1200 900" role="img">
  <rect width="1200" height="900" fill="#111316"/><g stroke="#26313a" stroke-width="1"><path d="M0 90h1200M0 180h1200M0 270h1200M0 360h1200M0 450h1200M0 540h1200M0 630h1200M0 720h1200M0 810h1200"/><path d="M100 0v900M200 0v900M300 0v900M400 0v900M500 0v900M600 0v900M700 0v900M800 0v900M900 0v900M1000 0v900M1100 0v900"/></g>
  <g fill="none" stroke="#7f8a92" stroke-width="4"><circle cx="510" cy="235" r="80"/><path d="M510 315v300M390 430h240M510 610l-110 205M510 610l110 205M440 355l-115 150M580 355l145 135"/></g>
  <g fill="none" stroke="#196ad2" stroke-width="3"><circle cx="790" cy="260" r="90"/><path d="M125 690C335 555 520 535 760 625s320 35 395-50"/><path d="M805 350v315M715 455h285"/></g>
  <g stroke="#56616a"><path d="M110 160h260M110 205h190M845 670h230M845 710h170"/></g>
</svg>
