<svg xmlns="http://www.w3.org/2000/svg" viewBox="0 0 1400 700" role="img">
  <title>ninth-art-manifesto.svg</title>
  <rect width="1400" height="700" fill="#faf9f5"/>
  <defs>
    <pattern id="grid" width="64" height="64" patternUnits="userSpaceOnUse">
      <path d="M 64 0 L 0 0 0 64" fill="none" stroke="#d8d8d2" stroke-width="1" opacity="0.55"/>
    </pattern>
  </defs>
  <rect width="1400" height="700" fill="url(#grid)"/>
  <g fill="#f7f7f4" stroke="#181818" stroke-width="2.5">
    <rect x="90" y="120" width="240" height="140"/>
    <rect x="360" y="86" width="310" height="190"/>
    <rect x="730" y="118" width="250" height="150"/>
    <rect x="1050" y="88" width="210" height="210"/>
  </g>
  <path d="M40 545 C250 420 400 575 590 455 S920 475 1340 375" fill="none" stroke="#111" stroke-width="3"/>
  <circle cx="1040" cy="356" r="76" fill="none" stroke="#1d6fd0" stroke-width="5"/>
  <g fill="#111"><circle cx="280" cy="475" r="18"/><path d="M260 495h40l28 105h-96z"/><circle cx="730" cy="458" r="18"/><path d="M710 478h40l28 105h-96z"/></g>
  <g stroke="#777" stroke-width="2"><path d="M180 350h410M180 380h330M760 350h250M760 380h180"/></g>
</svg>
