<svg xmlns="http://www.w3.org/2000/svg" viewBox="0 0 1400 700" role="img">
  <rect width="1400" height="700" fill="#f8f7f4"/><rect y="500" width="1400" height="200" fill="#efeeea"/>
  <g stroke="#dedbd3"><path d="M0 100h1400M0 200h1400M0 300h1400M0 400h1400M0 500h1400"/><path d="M100 0v700M200 0v700M300 0v700M400 0v700M500 0v700M600 0v700M700 0v700M800 0v700M900 0v700M1000 0v700M1100 0v700M1200 0v700M1300 0v700"/></g>
  <g fill="none" stroke="#111" stroke-width="3"><path d="M720 165v345"/><path d="M720 230c-120-70-210-70-305-45M720 250c130-100 255-100 375-45M720 320c-160-5-275 55-355 150M720 340c150 5 250 55 330 130"/></g>
  <g fill="#fff" stroke="#111" stroke-width="2"><rect x="95" y="90" width="250" height="150"/><rect x="1010" y="95" width="270" height="150"/><rect x="430" y="395" width="235" height="105"/><rect x="800" y="390" width="245" height="110"/></g>
  <g stroke="#111" stroke-width="4" fill="none"><circle cx="190" cy="518" r="28"/><path d="M190 548v95M150 590h80"/><circle cx="280" cy="525" r="24"/><path d="M280 552v90M245 590h75"/></g>
  <circle cx="1110" cy="335" r="58" fill="none" stroke="#196ad2" stroke-width="5"/>
</svg>
