<svg xmlns="http://www.w3.org/2000/svg" viewBox="0 0 1100 800" role="img">
  <title>ninth-art-mission.svg</title>
  <rect width="1100" height="800" fill="#0b0d12"/>
  <defs>
    <pattern id="grid" width="64" height="64" patternUnits="userSpaceOnUse">
      <path d="M 64 0 L 0 0 0 64" fill="none" stroke="#d8d8d2" stroke-width="1" opacity="0.55"/>
    </pattern>
  </defs>
  <rect width="1100" height="800" fill="url(#grid)"/>
  <defs><pattern id="darkgrid" width="58" height="58" patternUnits="userSpaceOnUse"><path d="M58 0L0 0 0 58" fill="none" stroke="#243040" stroke-width="1" opacity="0.8"/></pattern></defs>
  <rect width="1100" height="800" fill="#0b0d12"/>
  <rect width="1100" height="800" fill="url(#darkgrid)"/>
  <g stroke="#2879d8" stroke-width="3" fill="none" opacity="0.85"><circle cx="560" cy="400" r="180"/><circle cx="560" cy="400" r="92"/><path d="M160 210h260M690 210h260M160 590h260M690 590h260M560 220v360"/></g>
  <g fill="none" stroke="#c9d0d8" stroke-width="4"><circle cx="560" cy="265" r="48"/><path d="M560 315v220M475 385h170M505 535l-65 130M615 535l65 130"/></g>
  <g stroke="#667080" stroke-width="2"><path d="M120 120l820 520M980 140L220 660"/></g>
</svg>
